<?xml version="1.0" encoding="utf-8"?>
<!-- Generator: Adobe Illustrator 27.5.0, SVG Export Plug-In . SVG Version: 6.00 Build 0)  -->
<svg version="1.1" id="Layer_1" xmlns="http://www.w3.org/2000/svg" xmlns:xlink="http://www.w3.org/1999/xlink" x="0px" y="0px"
	 viewBox="0 0 512 512" style="enable-background:new 0 0 512 512;" xml:space="preserve">
<style type="text/css">
	.st0{fill:#DD1F26;}
</style>
<g>
	<path class="st0" d="M379.6,219.6c-1.3-8.4-3.4-18.9-12.2-18.9c-1.4-0.1-2.8-0.1-4.2-0.1c-71.4,0-142.9,0-214.3,0
		c-4.4,0-9.3,0.3-11.9,4.3c-2.7,4.1-3.4,9.4-4.2,14.2c-0.9,5.7-2.3,11.3-3.5,16.9c-2.7,12-5.5,23.9-8.6,35.9
		c-0.6,2.2-0.7,3.4-2.7,4.1c-2.2,0.7-5.8,0.1-8.1,0c-5.4-0.2-10.8-1.1-15.6-3.8c-10.6-6-16.1-15.2-16.2-27.2
		C78,226.1,78,207.3,78,188.4c0-9.3,0.1-18.6,0-27.8c-0.1-8.2-1.1-16.7,0.9-24.8c2-8,8.1-14.5,15.5-18.2c8.3-4.2,16.8-4,25.9-4
		c10.3,0,20.6,0,30.8,0c20.6,0,41.1,0,61.7,0c41.1,0,82.2,0,123.3,0c20.6,0,41.1,0,61.7,0c9,0,17.6,1.2,24.9,7.1
		c10.1,8.1,11.6,17.9,11.6,30.2c-0.1,16.8-0.1,33.6-0.1,50.4c0,10.3,0,20.5,0,30.8c0,8.8,0.8,17.8-3,25.9c-1.4,3-3.3,5.8-5.6,8.3
		c-6.9,7.3-16.2,9.8-26,9.8c-3.2,0-6.4,0.5-7.8-2.9c-2-4.9-2.6-11.3-3.8-16.6c-1.6-6.9-3.2-13.7-4.8-20.6c-0.8-3.3-1.5-6.6-2.3-9.9
		C380.3,224.3,380,222.1,379.6,219.6z"/>
	<path class="st0" d="M154.6,221.3c1-0.3,2.1-0.5,3.5-0.5c39.9,0,79.8,0.3,119.8,0.3c14,0,27.9,0,41.9,0c7,0,14,0,20.9,0
		c3.5,0,7,0.1,10.5,0c2.3-0.1,5.5-0.8,7.2,1.1c0.7,0.7,0.9,1.7,1.2,2.7c4.2,16,7.5,32.2,11,48.4c0.1,0.7,0.2,1.3,0.2,2
		c-0.2,0.2-0.4,0.4-0.7,0.5c-0.8,0-1.6,0.1-2.4,0.1c-41.1,0-82.2,0-123.3,0c-17.7,0-35.4,0-53,0c-8.8,0-17.7,0-26.5,0
		c-4.5,0-9,0-13.6,0c-2.9,0-9.1,1.8-10.1-2.3c-0.3-1.2-0.1-2.4,0.2-3.6c2.3-10.4,5.4-21,6.4-31.6C148.3,231.8,148,223.4,154.6,221.3
		z"/>
	<path class="st0" d="M243,391.4c0-0.3-0.1-0.5-0.1-0.8c-0.6-4.3-0.9-8.7,0.4-12.8c1.7-5.2,5.9-10,5-15.4c-0.4-2.3-1.7-4.3-2.8-6.5
		c-3.2-6.7-3.3-14.6-1.7-21.8c1-4.7,2.8-9.1,4.7-13.5c1.4-3.2,2.5-7.7,5.4-9.8c5.1-3.7,12.7-0.6,14.9,4.9c2,5.2,0.5,11.1-2,16.1
		c-1.5,3.1-3.5,6.3-3.6,9.7c-0.2,4.5,2.7,8.5,4.5,12.6c2.5,5.8,2.8,12.4,1,18.4c-1.3,4.4-3.8,8.5-5.1,12.9c-1.1,3.8-1.7,8.3-5,10.6
		c-2.1,1.5-4.8,1.6-7.4,1.6c-2.3-0.1-4.7-0.3-6.3-1.9C243.8,394.7,243.3,393.1,243,391.4z"/>
	<path class="st0" d="M188.3,338c0.1-0.3,0.1-0.6,0.2-1c1.4-6.2,3.2-12.3,5.5-18.3c3.4-9.1,14.3-13.6,19.7-2.9
		c2,3.9,1.8,8.7,0.1,12.8c-1.8,4.4-5.2,8.3-5.3,13.1c-0.1,4.1,2.4,7.8,4,11.6c2,4.7,2.8,10,2.2,15.1c-0.6,5-2.5,9.8-4.3,14.5
		c-0.9,2.2-1.7,4.3-2.6,6.5c-0.4,1.1-0.8,2.1-1.4,3.1c-2,3.6-5.9,6.1-9.9,6c-3.1-0.1-6.1-1.8-7.8-4.4c-1.6-2.5-1.9-5.6-1.8-8.5
		c0.2-4.1,1.3-8.2,3.1-11.9c1.8-3.6,4.4-7.4,3.6-11.3c-0.6-2.7-2.8-4.8-4.2-7.3C186.4,350,187.1,343.7,188.3,338z"/>
	<path class="st0" d="M304.4,317.8c1-3.1,2-5.8,5.2-7.5c6-3,13.2,1.1,14.6,7.4c1.2,5.4-0.9,10.9-3.4,15.8c-1.3,2.6-2.8,5.3-3,8.3
		c-0.3,4.9,2.9,9.2,4.6,13.7c4,10.6-0.2,22.4-4.3,33c-0.8,2.1-1.7,4.3-3.2,6c-2.1,2.4-5.5,3.7-8.7,3.4c-3.2-0.4-6.2-2.4-7.7-5.3
		c-1.2-2.2-1.4-4.8-1.5-7.3c-0.1-2.4,0-4.9,0.8-7.2c1.7-4.7,6.3-8.2,6.5-13.2c0.2-4.5-3.3-8.1-5.2-12.1c-2.7-5.9-2.1-12.8-0.2-19
		c1.5-5,3.6-9.7,5.2-14.6C304.1,318.8,304.3,318.3,304.4,317.8z"/>
</g>
</svg>
