<?xml version="1.0" encoding="utf-8"?>
<!-- Generator: Adobe Illustrator 27.5.0, SVG Export Plug-In . SVG Version: 6.00 Build 0)  -->
<svg version="1.1" id="Layer_1" xmlns="http://www.w3.org/2000/svg" xmlns:xlink="http://www.w3.org/1999/xlink" x="0px" y="0px"
	 viewBox="0 0 512 512" style="enable-background:new 0 0 512 512;" xml:space="preserve">
<style type="text/css">
	.st0{opacity:0.3;fill:#DD1F26;}
	.st1{fill:#DD1F26;}
</style>
<g>
	<path class="st0" d="M129.08,129.08c0-11.7-9.45-21.15-21.15-21.15s-21.15,9.45-21.15,21.15v222.1c0,29.22,23.66,52.88,52.88,52.88
		h264.41c11.7,0,21.15-9.45,21.15-21.15s-9.45-21.15-21.15-21.15H139.66c-5.82,0-10.58-4.76-10.58-10.58V129.08z"/>
	<path class="st1" d="M397.85,186.33c8.26-8.26,8.26-21.68,0-29.94c-8.26-8.26-21.68-8.26-29.94,0l-69.61,69.67l-37.94-37.94
		c-8.26-8.26-21.68-8.26-29.94,0l-74.03,74.03c-8.26,8.26-8.26,21.68,0,29.94c8.26,8.26,21.68,8.26,29.94,0l59.09-59.03l37.94,37.94
		c8.26,8.26,21.68,8.26,29.94,0l84.61-84.61L397.85,186.33z"/>
</g>
</svg>
