<?xml version="1.0" encoding="utf-8"?>
<!-- Generator: Adobe Illustrator 27.5.0, SVG Export Plug-In . SVG Version: 6.00 Build 0)  -->
<svg version="1.1" id="Layer_1" xmlns="http://www.w3.org/2000/svg" xmlns:xlink="http://www.w3.org/1999/xlink" x="0px" y="0px"
	 viewBox="0 0 512 512" style="enable-background:new 0 0 512 512;" xml:space="preserve">
<style type="text/css">
	.st0{fill:#DD1F26;}
	.st1{opacity:0.3;fill:#DD1F26;}
</style>
<g>
	<path class="st0" d="M404.91,218.77v-9.31c0-25.71-20.82-46.53-46.53-46.53H135.01c-25.71,0-46.53,20.82-46.53,46.53v93.07
		c0,25.71,20.82,46.53,46.53,46.53h223.36c25.71,0,46.53-20.82,46.53-46.53v-9.31c10.3,0,18.61-8.32,18.61-18.61v-37.23
		C423.52,227.09,415.2,218.77,404.91,218.77z M367.68,302.53c0,5.12-4.19,9.31-9.31,9.31H135.01c-5.12,0-9.31-4.19-9.31-9.31v-93.07
		c0-5.12,4.19-9.31,9.31-9.31h223.36c5.12,0,9.31,4.19,9.31,9.31V302.53z"/>
	<path class="st1" d="M292.25,207.07H145.3c-6.48,0-11.74,6.04-11.74,13.48v70.89c0,7.45,5.26,13.48,11.74,13.48h146.94
		c6.48,0,11.74-6.04,11.74-13.48v-70.89C303.98,213.11,298.73,207.07,292.25,207.07z"/>
</g>
</svg>
