<?xml version="1.0" encoding="utf-8"?>
<!-- Generator: Adobe Illustrator 27.5.0, SVG Export Plug-In . SVG Version: 6.00 Build 0)  -->
<svg version="1.1" id="Layer_1" xmlns="http://www.w3.org/2000/svg" xmlns:xlink="http://www.w3.org/1999/xlink" x="0px" y="0px"
	 viewBox="0 0 512 512" style="enable-background:new 0 0 512 512;" xml:space="preserve">
<style type="text/css">
	.st0{fill:#DD1F26;}
	.st1{opacity:0.3;fill:#DD1F26;}
</style>
<g>
	<path class="st0" d="M414.17,256.05c0,87.18-70.94,158.12-158.12,158.12c-32.47,0-63.76-9.74-90.42-28.34
		c-3.44-2.36-5.71-5.9-6.4-9.94c-0.79-4.13,0.2-8.17,2.56-11.61c2.95-4.23,7.87-6.59,12.69-6.59c3.05,0,6.2,0.89,8.86,2.76
		c21.35,14.96,46.54,22.83,72.71,22.83c70.15,0,127.22-57.07,127.22-127.22c0-70.15-57.07-127.22-127.22-127.22
		c-33.94,0-65.92,13.18-89.93,37.19l-3.44,3.54l23.02,23.02c3.64,3.64,3.54,8.26,2.26,11.31c-1.67,4.03-5.21,6.49-9.54,6.49h-70.15
		c-5.71,0-10.43-4.72-10.43-10.43v-70.15c0-5.02,3.35-8.27,6.4-9.54c3.15-1.28,7.77-1.38,11.32,2.26l25.19,25.19l3.44-3.54
		c29.91-29.81,69.66-46.34,111.87-46.34C343.22,97.83,414.17,168.78,414.17,256.05z"/>
	<path class="st1" d="M256.04,174.5c-8.47,0-15.29,6.82-15.29,15.29v66.25c0,4.08,1.59,7.96,4.46,10.83l45.87,45.87
		c5.99,5.99,15.67,5.99,21.6,0c5.92-5.99,5.99-15.67,0-21.6l-41.41-41.41v-59.95c0-8.47-6.82-15.29-15.29-15.29H256.04z"/>
</g>
</svg>
