<?xml version="1.0" encoding="utf-8"?>
<!-- Generator: Adobe Illustrator 27.5.0, SVG Export Plug-In . SVG Version: 6.00 Build 0)  -->
<svg version="1.1" id="Layer_1" xmlns="http://www.w3.org/2000/svg" xmlns:xlink="http://www.w3.org/1999/xlink" x="0px" y="0px"
	 viewBox="0 0 512 512" style="enable-background:new 0 0 512 512;" xml:space="preserve">
<style type="text/css">
	.st0{fill:#DD1F26;}
	.st1{opacity:0.3;fill:#DD1F26;}
</style>
<g>
	<path class="st0" d="M291.4,310.02V94.72c0-19.52-15.89-35.41-35.41-35.41c-19.45,0-35.28,15.89-35.28,35.41v215.29
		c-24.73,13.05-40.4,38.73-40.4,66.99c0,41.72,33.95,75.67,75.67,75.67s75.68-33.95,75.68-75.67
		C331.68,348.72,316.06,323.04,291.4,310.02z M244.9,94.72c0-6.19,4.98-11.22,11.1-11.22c6.19,0,11.23,5.04,11.23,11.22v231.5
		l5.96,2.13c20.52,7.31,34.31,26.86,34.31,48.65c0,28.4-23.1,51.49-51.5,51.49s-51.5-23.1-51.5-51.49
		c0-21.76,13.84-41.32,34.43-48.65l5.96-2.13V94.72z"/>
	<path class="st1" d="M278.95,318.02V180.58l-45.85,19.61v117.84c-24.17,9.39-40.28,32.81-40.28,58.91
		c0,34.88,28.37,63.26,63.25,63.26c34.83,0,63.16-28.38,63.16-63.26C319.24,350.79,303.08,327.34,278.95,318.02z"/>
</g>
</svg>
