<?xml version="1.0" encoding="utf-8"?>
<!-- Generator: Adobe Illustrator 27.5.0, SVG Export Plug-In . SVG Version: 6.00 Build 0)  -->
<svg version="1.1" id="Layer_1" xmlns="http://www.w3.org/2000/svg" xmlns:xlink="http://www.w3.org/1999/xlink" x="0px" y="0px"
	 viewBox="0 0 512 512" style="enable-background:new 0 0 512 512;" xml:space="preserve">
<style type="text/css">
	.st0{fill:#DD1F26;}
	.st1{opacity:0.3;fill:#DD1F26;}
</style>
<g>
	<path class="st0" d="M256,62.97C149.39,62.97,62.97,149.39,62.97,256c0,106.61,86.42,193.03,193.03,193.03
		c106.61,0,193.03-86.42,193.03-193.03C449.03,149.39,362.61,62.97,256,62.97z M256,412.84c-86.62,0-156.84-70.22-156.84-156.84
		S169.38,99.16,256,99.16S412.84,169.38,412.84,256S342.62,412.84,256,412.84z"/>
	<path class="st1" d="M204.95,173.89c5.73-3.17,12.67-3.09,18.32,0.38l108.58,66.35c5.35,3.32,8.67,9.12,8.67,15.46
		c0,6.33-3.32,12.14-8.67,15.46l-108.58,66.35c-5.58,3.39-12.59,3.54-18.32,0.38c-5.73-3.17-9.27-9.2-9.27-15.76V189.65
		C195.68,183.09,199.22,177.05,204.95,173.89z"/>
</g>
</svg>
