<?xml version="1.0" encoding="utf-8"?>
<!-- Generator: Adobe Illustrator 27.5.0, SVG Export Plug-In . SVG Version: 6.00 Build 0)  -->
<svg version="1.1" id="Layer_1" xmlns="http://www.w3.org/2000/svg" xmlns:xlink="http://www.w3.org/1999/xlink" x="0px" y="0px"
	 viewBox="0 0 512 512" style="enable-background:new 0 0 512 512;" xml:space="preserve">
<style type="text/css">
	.st0{fill:#DD1F26;}
	.st1{fill:#DD1F26;enable-background:new    ;}
</style>
<g>
	<path class="st0" d="M403,97h-39.3V55.2c0-6.3-5.1-11.4-11.4-11.4h-32.9c-6.3,0-11.4,5.1-11.4,11.4V97H204.1l0,0V72.9
		c0-1.3,0-1.3,0-2.5V55.2c0-6.3-5.1-11.4-11.4-11.4h-32.9c-6.3,0-11.4,5.1-11.4,11.4V97h-36.7C88.8,97,71,114.7,71,137.5v39.3l0,0
		h371.2l0,0v-39.3C442.2,116,424.5,97,403,97z"/>
	<path class="st1" d="M69.8,203.4v225.5c0,21.5,17.7,39.3,39.3,39.3h292.6c21.5,0,39.3-17.7,39.3-39.3V203.4H69.8z M417.6,413.5
		c0,14.9-12.1,26.9-26.9,26.9H122.6c-14.9,0-26.9-12.1-26.9-26.9v-161c0-14.9,12.1-26.9,26.9-26.9h268.1c14.9,0,26.9,12.1,26.9,26.9
		V413.5z"/>
	<path class="st0" d="M158.7,301.6H132c-7.3,0-13.2-5.9-13.2-13.2v-26.8c0-7.3,5.9-13.2,13.2-13.2h26.8c7.3,0,13.2,5.9,13.2,13.2
		v26.8C172,295.6,166,301.6,158.7,301.6z"/>
</g>
</svg>
