<?xml version="1.0" encoding="utf-8"?>
<!-- Generator: Adobe Illustrator 27.5.0, SVG Export Plug-In . SVG Version: 6.00 Build 0)  -->
<svg version="1.1" id="Layer_1" xmlns="http://www.w3.org/2000/svg" xmlns:xlink="http://www.w3.org/1999/xlink" x="0px" y="0px"
	 viewBox="0 0 512 512" style="enable-background:new 0 0 512 512;" xml:space="preserve">
<style type="text/css">
	.st0{fill:#DD1F26;}
	.st1{opacity:0.3;fill:#DD1F26;}
</style>
<g>
	<path class="st0" d="M256,77.42c-98.62,0-178.58,79.95-178.58,178.58c0,98.62,79.95,178.58,178.58,178.58
		c98.62,0,178.57-79.95,178.57-178.58C434.57,157.38,354.62,77.42,256,77.42z M256,401.09c-80.13,0-145.09-64.96-145.09-145.09
		c0-80.13,64.96-145.09,145.09-145.09c80.13,0,145.09,64.96,145.09,145.09C401.09,336.13,336.13,401.09,256,401.09z"/>
	<path class="st1" d="M239.26,161.13V256c0,5.58,2.79,10.81,7.46,13.95l66.97,44.64c7.67,5.16,18.07,3.07,23.23-4.67
		c5.16-7.74,3.07-18.07-4.67-23.23l-59.5-39.62v-85.94c0-9.28-7.46-16.74-16.74-16.74S239.26,151.85,239.26,161.13z"/>
</g>
</svg>
