<?xml version="1.0" encoding="utf-8"?>
<!-- Generator: Adobe Illustrator 27.5.0, SVG Export Plug-In . SVG Version: 6.00 Build 0)  -->
<svg version="1.1" id="Layer_1" xmlns="http://www.w3.org/2000/svg" xmlns:xlink="http://www.w3.org/1999/xlink" x="0px" y="0px"
	 viewBox="0 0 512 512" style="enable-background:new 0 0 512 512;" xml:space="preserve">
<style type="text/css">
	.st0{fill:#DD1F26;}
	.st1{opacity:0.3;fill:#DD1F26;}
</style>
<g>
	<path class="st0" d="M426.72,255.9c-0.34-3.46-0.83-6.84-1.44-10.15c-0.9-5.38-1.82-9.69-2.87-13.41
		c-6.56-25.97-19.47-50.42-37.27-70.63c-2.79-3.32-5.89-6.59-9.42-9.97c-19.29-18.88-43.03-33.09-68.62-41.08
		c-4.2-1.34-8.67-2.52-13.2-3.49c-5.85-1.36-11.91-2.4-18.02-3.08c-20.97-2.39-41.83-1.03-62.03,4.05
		c-4.74,1.24-9.03,2.53-13.09,3.95c-25.35,8.58-48.73,23.36-67.61,42.72c-3.03,3.1-6.03,6.4-9.17,10.12
		c-17.3,20.78-29.55,45.58-35.39,71.61c-1.04,4.16-1.9,8.72-2.55,13.5c-1.18,8.12-1.78,16.39-1.78,24.61
		c0,18.82,3.06,37.36,9.09,55.08c1.37,4.12,2.96,8.28,4.85,12.73c1.37,3.21,2.87,6.36,4.44,9.5l1.44,2.75h0.03
		c1.93,3.68,3.87,7.02,5.91,10.15l2.34,3.6l3.91-1.79c3.97-1.82,8.01-3.51,12.11-5.14l5.68-2.26l-3.35-5.11
		c-2.69-4.1-5.18-8.45-7.61-13.3c-1.15-2.31-2.24-4.68-3.28-7.1c-1.84-4.15-3.32-8.04-4.56-12.01c-5.15-15.07-7.76-30.92-7.76-47.12
		c0-6.9,0.5-13.87,1.48-20.85c0.58-4.34,1.35-8.4,2.38-12.5c5.06-22.24,15.5-43.37,30.22-61.17c2.51-3.11,5.31-6.2,8.58-9.47
		c16.15-16.48,36.07-29.07,57.7-36.45c3.97-1.45,8.06-2.66,12.24-3.63c16.96-4.23,34.51-5.41,52.18-3.53
		c5.83,0.62,11.04,1.47,16.02,2.64c4.37,0.93,8.38,2.01,12.36,3.33c21.71,6.8,41.91,18.87,58.45,34.95
		c3.28,3.14,6.24,6.27,8.86,9.37c15.14,17.35,26.13,38.18,31.8,60.27c1.06,3.98,1.96,8.2,2.68,12.51c0.39,2.44,0.77,4.87,1.03,7.36
		c2.36,20.54,0.48,40.94-5.6,60.68c-1.12,3.74-2.52,7.7-4.31,12.14c-1.33,3.37-2.92,6.92-4.74,10.55
		c-2.31,4.62-4.79,9.02-7.59,13.44l-3.24,5.12l5.65,2.18c4.02,1.55,8.05,3.24,12,5.06l3.98,1.83l2.32-3.72
		c2.77-4.45,5.22-8.78,7.23-12.83c2.25-4.36,4.33-8.93,6.16-13.54c1.61-3.94,3.11-8.15,4.59-12.87
		C426.98,303.17,429.26,279.73,426.72,255.9z"/>
	<path class="st1" d="M354.75,409.06H157.27v-53.56h197.48V409.06z M168.97,395.79h174.07v-27H168.97V395.79z"/>
	<path class="st0" d="M334.33,202.02l-73.87,47.61c-1.45-0.26-2.93-0.45-4.45-0.45c-14.05,0-25.48,11.43-25.48,25.48
		s11.43,25.48,25.48,25.48s25.48-11.43,25.48-25.48c0-2.76-0.55-5.37-1.37-7.86L334.33,202.02z M256.01,293.51
		c-10.39,0-18.85-8.45-18.85-18.85c0-10.39,8.45-18.85,18.85-18.85c10.39,0,18.85,8.45,18.85,18.85
		C274.85,285.06,266.4,293.51,256.01,293.51z"/>
	<path class="st1" d="M134.73,328.29l-19.45,7.5c-1.79-4.05-3.39-8.17-4.71-12.41l19.45-7.5c3.39-1.33,7.24,0.4,8.56,3.85
		C139.9,323.11,138.18,326.96,134.73,328.29z"/>
	<path class="st1" d="M132.34,251.68c-0.6,3.19-3.39,5.44-6.51,5.44c-0.4,0-0.8,0-1.19-0.13l-20.58-3.78v-0.07
		c0.6-4.45,1.39-8.7,2.46-12.94l20.51,3.78C130.61,244.65,133,248.1,132.34,251.68z"/>
	<path class="st1" d="M162.54,190.48c-1.26,1.46-3.12,2.19-4.91,2.19c-1.59,0-3.19-0.53-4.45-1.73L137.71,177
		c2.79-3.45,5.78-6.7,8.9-9.82l15.47,13.94C164.8,183.57,165,187.76,162.54,190.48z"/>
	<path class="st1" d="M220.29,154.03c-0.6,0.2-1.26,0.33-1.86,0.33c-2.85,0-5.51-1.93-6.37-4.78l-5.91-20.05
		c4.18-1.53,8.43-2.79,12.75-3.78l5.91,20.05C225.87,149.32,223.81,153.04,220.29,154.03z"/>
	<path class="st1" d="M302.14,128.28l-5.44,20.25c-0.8,2.92-3.45,4.91-6.37,4.91c-0.6,0-1.13-0.07-1.73-0.27
		c-3.52-0.93-5.64-4.58-4.71-8.1l5.44-20.25C293.71,125.75,297.96,126.88,302.14,128.28z"/>
	<path class="st1" d="M371.71,174.08l-15.07,14.27c-1.26,1.26-2.92,1.86-4.58,1.86c-1.73,0-3.52-0.73-4.78-2.06
		c-2.52-2.72-2.46-6.9,0.2-9.43l15.07-14.34C365.74,167.44,368.86,170.7,371.71,174.08z"/>
	<path class="st1" d="M407.36,249.36l-20.45,4.31c-0.46,0.13-0.93,0.13-1.39,0.13c-3.05,0-5.84-2.12-6.51-5.24
		c-0.73-3.58,1.53-7.1,5.11-7.9l20.45-4.32C405.7,240.6,406.63,244.98,407.36,249.36z"/>
	<path class="st1" d="M402.65,319.59c-1.26,4.25-2.79,8.43-4.45,12.55l-19.58-6.97c-3.45-1.26-5.31-5.05-4.05-8.5
		c1.19-3.45,4.98-5.24,8.43-4.05L402.65,319.59z"/>
</g>
</svg>
