<?xml version="1.0" encoding="utf-8"?>
<!-- Generator: Adobe Illustrator 27.5.0, SVG Export Plug-In . SVG Version: 6.00 Build 0)  -->
<svg version="1.1" id="Layer_1" xmlns="http://www.w3.org/2000/svg" xmlns:xlink="http://www.w3.org/1999/xlink" x="0px" y="0px"
	 viewBox="0 0 512 512" style="enable-background:new 0 0 512 512;" xml:space="preserve">
<style type="text/css">
	.st0{fill:#DD1F26;enable-background:new    ;}
</style>
<g>
	<path class="st0" d="M361,230.3h-17.6v20.1H361c2.7,0,5-0.9,6.7-2.7c1.7-1.8,2.6-4.2,2.6-7.2c0-3.1-0.8-5.5-2.5-7.4
		C366,231.2,363.7,230.3,361,230.3z"/>
	<path class="st0" d="M283.7,230c-4.1,0-7.5,1.3-10,3.9c-2.5,2.6-3.7,6-3.7,10.3v23.7c0,4.3,1.2,7.7,3.7,10.3
		c2.5,2.6,5.8,3.9,10,3.9s7.5-1.3,10-3.9c2.5-2.6,3.7-6,3.7-10.3v-23.7c0-4.3-1.2-7.7-3.7-10.3C291.2,231.3,287.8,230,283.7,230z"/>
	<path class="st0" d="M463.8,229.8L382.2,89.6C372.4,73.8,355.3,64,337.1,64H174.9c-18.3,0-35.3,9.8-45.1,25.6L48.2,229.8
		c-9.8,15.8-9.8,36.6,0,52.4l81.7,140.2c9.8,15.8,26.8,25.6,45.1,25.6h162.1c18.3,0,35.3-9.8,45.1-25.6l81.7-140.2
		C473.6,266.4,473.6,245.6,463.8,229.8z M187.2,272.7c0,7.8-2.7,13.8-8.1,18.1c-5.4,4.3-12.9,6.4-22.7,6.4c-3.9,0-7.6-0.4-11.3-1.2
		c-3.7-0.8-7.1-1.9-10.4-3.4c-3.2-1.5-6.1-3.3-8.7-5.4l7.1-12.6c3.1,2.6,6.7,4.5,10.8,5.9c4.1,1.4,8.3,2.1,12.6,2.1
		c5,0,8.8-0.8,11.6-2.5c2.7-1.7,4.1-4.1,4.1-7.1v-0.1c0-2.3-0.7-4.1-2.1-5.4c-1.4-1.2-3.2-2.2-5.4-2.7c-2.2-0.6-4.7-1.1-7.3-1.5
		c-3.1-0.5-6.3-1.1-9.6-1.8c-3.2-0.7-6.2-1.9-8.9-3.4c-2.7-1.6-4.9-3.8-6.5-6.7c-1.6-2.9-2.5-6.8-2.5-11.7v-0.1
		c0-7.9,2.6-14,7.8-18.3c5.2-4.3,12.5-6.5,22-6.5c4.4,0,8.8,0.7,13.3,2.2c4.5,1.5,8.7,3.5,12.6,6.2l-6.4,12.9
		c-3.1-2.2-6.4-3.9-9.7-5c-3.4-1.2-6.6-1.7-9.7-1.7c-4.7,0-8.3,0.8-10.8,2.3c-2.6,1.5-3.8,3.7-3.8,6.5v0.1c0,2.6,0.8,4.6,2.3,5.9
		c1.5,1.3,3.5,2.3,5.9,3c2.4,0.6,5.1,1.2,7.9,1.8c3.1,0.6,6.2,1.3,9.3,2.2c3.1,0.9,5.9,2.1,8.4,3.7c2.6,1.6,4.6,3.9,6.1,6.7
		c1.5,2.9,2.3,6.6,2.3,11.1V272.7z M249.2,230.3h-22v66.1H212v-66.1h-22v-14.7h59.2V230.3z M313.2,267.4c0,6-1.2,11.2-3.7,15.7
		c-2.4,4.5-5.9,8-10.3,10.4c-4.4,2.5-9.6,3.7-15.5,3.7c-5.9,0-11.1-1.2-15.5-3.7c-4.4-2.5-7.9-5.9-10.3-10.4
		c-2.4-4.5-3.7-9.7-3.7-15.7v-22.9c0-6,1.2-11.2,3.7-15.7c2.4-4.5,5.9-7.9,10.3-10.4c4.4-2.5,9.6-3.7,15.5-3.7
		c5.9,0,11.1,1.2,15.5,3.7c4.4,2.5,7.9,5.9,10.3,10.4c2.4,4.5,3.7,9.7,3.7,15.7V267.4z M382.8,253.4c-2.1,3.7-5.1,6.6-8.9,8.6
		c-3.8,2-8.3,3.1-13.3,3.1h-17.2v31.3h-15.2v-80.8h6.9h8.3h17.2c5.1,0,9.6,1,13.4,3.1c3.8,2.1,6.7,4.9,8.9,8.6
		c2.1,3.7,3.2,8.1,3.2,13.1C386,245.4,384.9,249.7,382.8,253.4z"/>
</g>
</svg>
