<?xml version="1.0" encoding="utf-8"?>
<!-- Generator: Adobe Illustrator 27.5.0, SVG Export Plug-In . SVG Version: 6.00 Build 0)  -->
<svg version="1.1" id="Layer_1" xmlns="http://www.w3.org/2000/svg" xmlns:xlink="http://www.w3.org/1999/xlink" x="0px" y="0px"
	 viewBox="0 0 512 512" style="enable-background:new 0 0 512 512;" xml:space="preserve">
<style type="text/css">
	.st0{opacity:0.3;fill:#DD1F26;}
	.st1{fill:#DD1F26;}
</style>
<g>
	<path class="st0" d="M339.7,114.9l-18.46,43.13h-92.54l77.29-67.65c7.55-6.58,18.61-7.1,26.69-1.2
		C340.74,95.01,343.66,105.7,339.7,114.9z"/>
	<path class="st1" d="M376.92,272.1L205.97,421.68c-7.48,6.5-18.54,7.03-26.61,1.2c-8.07-5.91-10.99-16.59-7.1-25.71l51.35-119.75
		h-79.83c-19.06-7.7-19.88-27.58-8.67-37.45l93.59-81.93h92.54l-32.82,76.69h74.45c8.9,0,16.82,5.53,19.96,13.83
		C385.97,256.85,383.58,266.19,376.92,272.1z"/>
</g>
</svg>
